<?xml version="1.0" standalone="no"?>
<!DOCTYPE svg PUBLIC "-//W3C//DTD SVG 20010904//EN"
 "http://www.w3.org/TR/2001/REC-SVG-20010904/DTD/svg10.dtd">
<svg version="1.0" xmlns="http://www.w3.org/2000/svg"
 width="200.000000pt" height="200.000000pt" viewBox="0 0 200.000000 200.000000"
 preserveAspectRatio="xMidYMid meet">
<metadata>
Created by potrace 1.11, written by Peter Selinger 2001-2013
</metadata>
<g transform="translate(0.000000,200.000000) scale(0.100000,-0.100000)"
fill="#000000" stroke="none">
<path d="M575 1607 c-51 -59 -112 -189 -126 -270 -63 -372 214 -705 588 -705
249 0 480 164 563 399 29 82 37 257 15 339 -25 97 -90 215 -142 262 -19 17
-20 17 -42 -6 l-23 -25 46 -64 c147 -206 135 -472 -31 -657 -144 -161 -372
-216 -576 -140 -209 78 -349 298 -333 522 8 110 42 193 130 313 13 18 12 23
-9 47 l-24 28 -36 -43z"/>
<path d="M975 1568 c-37 -43 -85 -146 -85 -180 0 -15 4 -38 9 -51 9 -24 9 -25
-28 -20 -75 10 -141 -52 -141 -132 0 -50 8 -62 40 -65 44 -4 60 0 60 13 0 7
12 30 26 51 25 37 28 38 40 21 8 -10 14 -26 14 -34 0 -9 5 -34 11 -56 11 -37
12 -38 25 -20 13 18 27 20 131 20 l117 0 8 33 c6 23 14 32 30 32 31 0 83 36
97 67 8 16 16 53 18 84 l5 57 -58 -4 c-74 -6 -114 -18 -144 -46 -28 -26 -50
-32 -50 -13 0 13 39 49 76 71 17 10 17 13 -9 56 -26 45 -75 92 -135 130 l-30
19 -27 -33z m75 -185 c16 -55 16 -62 2 -68 -8 -3 -17 -3 -19 -1 -3 3 -7 42 -9
88 -2 46 -1 74 2 63 3 -11 14 -48 24 -82z m170 -128 c-7 -8 -17 -12 -23 -8 -6
4 -3 11 8 19 23 17 32 10 15 -11z"/>
<path d="M1741 1573 c-24 -46 -36 -117 -47 -283 -5 -87 -4 -99 16 -133 23 -39
24 -47 5 -379 -4 -68 8 -98 38 -98 36 1 39 14 30 151 -4 74 -8 275 -8 446 0
239 -3 313 -12 313 -7 0 -16 -8 -22 -17z"/>
<path d="M662 1535 c-66 -75 -104 -177 -107 -284 -9 -329 299 -567 615 -475
76 22 135 59 200 124 64 64 103 132 125 215 37 145 0 313 -96 425 l-29 34 -26
-25 -26 -26 35 -46 c70 -91 98 -222 73 -330 -63 -266 -360 -397 -595 -264 -84
47 -160 148 -192 252 -29 93 2 248 68 337 l34 47 -24 26 -24 26 -31 -36z"/>
<path d="M290 1410 c0 -68 -3 -120 -7 -117 -4 4 -7 52 -8 107 -2 107 -11 145
-14 58 -3 -88 -10 -160 -15 -166 -3 -2 -4 46 -2 107 4 104 1 132 -8 84 -3 -11
-7 -70 -11 -131 -7 -104 -6 -112 15 -142 22 -30 22 -37 17 -213 -3 -100 -9
-197 -12 -216 -4 -18 -4 -44 -1 -56 8 -30 42 -39 65 -16 18 18 18 31 7 121 -4
30 -9 118 -10 195 -3 129 -1 143 20 185 16 31 22 57 19 85 -2 22 -7 81 -10
130 -4 50 -9 92 -12 95 -2 2 -3 -46 -2 -108 1 -61 -1 -115 -4 -119 -4 -3 -7
18 -8 48 -1 81 -9 182 -14 188 -3 2 -5 -51 -5 -119z"/>
<path d="M856 1101 c-13 -25 -20 -28 -51 -25 -42 4 -43 -4 -7 -48 38 -46 59
-63 117 -94 l50 -26 49 23 c49 22 163 126 152 137 -9 8 -190 4 -193 -5 -2 -4
-12 -23 -23 -41 -27 -44 -44 -31 -59 48 -7 33 -14 60 -16 60 -3 0 -11 -13 -19
-29z"/>
<path d="M148 440 c-33 -79 -42 -110 -32 -110 8 0 14 6 14 14 0 29 30 46 81
46 47 0 51 -2 60 -30 6 -16 17 -30 25 -30 9 0 3 24 -22 83 -20 45 -41 94 -46
110 -5 15 -15 27 -22 27 -7 0 -33 -49 -58 -110z m101 -22 c1 -5 -20 -8 -45 -8
-33 0 -45 4 -41 13 3 6 13 32 23 57 l18 44 22 -49 c13 -28 23 -53 23 -57z"/>
<path d="M420 440 l0 -110 65 0 c52 0 69 4 85 20 25 25 26 54 1 79 -17 17 -18
21 -5 32 21 17 17 56 -8 73 -14 10 -44 16 -80 16 l-58 0 0 -110z m130 71 c13
-25 13 -27 -6 -45 -9 -10 -33 -16 -60 -16 l-44 0 0 40 0 40 50 0 c38 0 52 -4
60 -19z m10 -96 c10 -12 10 -21 2 -40 -10 -22 -18 -25 -67 -25 l-55 0 0 40 0
40 54 0 c36 0 58 -5 66 -15z"/>
<path d="M1390 543 c0 -3 16 -35 37 -71 24 -44 36 -79 36 -104 0 -22 5 -38 12
-38 7 0 11 15 10 38 -1 20 2 42 6 47 12 17 69 123 69 129 0 20 -20 -2 -49 -55
l-34 -61 -33 53 c-19 30 -34 57 -34 62 0 9 -20 10 -20 0z"/>
<path d="M819 518 c-1 -7 -1 -16 0 -20 0 -4 -6 -5 -14 -2 -8 4 -15 2 -15 -4 0
-5 6 -12 13 -15 9 -3 13 -21 12 -48 -2 -70 12 -99 46 -99 16 0 29 5 29 10 0 6
-9 10 -20 10 -30 0 -41 43 -31 123 1 4 10 7 21 7 11 0 20 4 20 10 0 5 -7 7
-16 3 -10 -4 -17 1 -21 16 -6 23 -22 29 -24 9z"/>
<path d="M930 519 c0 -7 -8 -18 -17 -25 -17 -13 -17 -13 0 -14 14 0 17 -10 17
-63 0 -68 10 -87 46 -87 34 0 39 18 7 22 -27 3 -28 5 -31 66 -3 60 -2 63 19
60 12 -2 24 3 27 11 3 8 0 11 -6 7 -15 -9 -42 4 -42 20 0 8 -4 14 -10 14 -5 0
-10 -5 -10 -11z"/>
<path d="M664 488 c-25 -12 -44 -48 -44 -84 0 -37 42 -74 83 -74 35 0 67 23
48 34 -5 4 -12 2 -16 -4 -12 -19 -63 -11 -79 12 -9 12 -16 25 -16 29 0 3 29 5
65 4 61 -2 65 -1 65 20 0 48 -61 84 -106 63z m70 -29 c6 -5 11 -15 12 -23 2
-11 -10 -15 -47 -14 -58 0 -67 10 -39 38 21 21 52 20 74 -1z"/>
<path d="M1055 477 c-22 -20 -29 -45 -26 -88 1 -8 10 -25 21 -37 23 -24 78
-30 98 -10 19 19 14 30 -7 18 -28 -14 -57 -12 -75 6 -31 30 -19 40 44 39 59
-1 60 -1 60 25 0 55 -73 85 -115 47z m73 -13 c38 -27 28 -43 -28 -42 -35 0
-50 4 -50 13 0 13 36 45 50 45 3 0 16 -7 28 -16z"/>
<path d="M1278 494 c-3 -3 -18 -6 -33 -7 -28 -2 -28 -4 -30 -67 -2 -70 2 -93
15 -85 5 3 9 28 8 56 0 51 14 79 38 79 8 0 14 7 14 15 0 16 -3 18 -12 9z"/>
<path d="M1593 476 c-36 -31 -37 -100 -3 -128 32 -26 76 -23 105 7 70 69 -28
184 -102 121z m77 -6 c5 0 14 -16 20 -35 10 -30 9 -40 -4 -60 -31 -48 -97 -24
-98 34 -1 38 34 76 59 66 8 -3 18 -5 23 -5z"/>
<path d="M1760 438 c0 -79 17 -108 64 -108 17 0 37 5 44 12 9 9 12 9 12 0 0
-7 5 -12 10 -12 6 0 10 35 10 86 0 54 -4 83 -10 79 -5 -3 -10 -29 -10 -56 0
-66 -13 -89 -50 -89 -37 0 -50 23 -50 89 0 27 -4 53 -10 56 -6 4 -10 -17 -10
-57z"/>
</g>
</svg>
